<?xml version="1.0" encoding="UTF-8" ?>
<!DOCTYPE svg PUBLIC "-//W3C//DTD SVG 1.1//EN" "http://www.w3.org/Graphics/SVG/1.1/DTD/svg11.dtd">
<svg width="1000pt" height="1000pt" viewBox="0 0 1000 1000" version="1.1" xmlns="http://www.w3.org/2000/svg">
<path fill="#fefefe" d=" M 0.00 0.00 L 1000.00 0.00 L 1000.00 1000.00 L 0.00 1000.00 L 0.00 0.00 Z" />
<path fill="#2c2c2c" d=" M 465.56 62.13 C 482.66 60.98 499.87 59.89 517.00 61.17 C 594.97 63.71 672.02 88.21 737.54 130.50 C 801.77 171.75 854.90 230.05 890.03 297.81 C 916.84 349.63 933.53 406.78 937.81 465.00 C 939.24 483.90 940.16 502.94 938.58 521.87 C 934.62 615.87 898.36 707.96 838.23 780.24 C 788.03 840.91 721.28 887.75 647.01 914.01 C 610.35 927.19 571.86 935.09 533.04 938.09 C 513.73 939.17 494.35 939.02 475.02 938.50 C 413.13 935.34 352.11 918.26 297.15 889.69 C 231.59 855.53 174.88 804.55 134.04 742.92 C 109.85 706.80 91.38 666.92 78.89 625.30 C 67.20 586.64 61.56 546.30 60.67 506.00 C 60.42 478.71 62.65 451.43 67.17 424.51 C 80.98 344.68 117.54 268.94 171.48 208.48 C 215.94 158.33 271.98 118.43 334.11 93.24 C 375.93 76.04 420.48 65.46 465.56 62.13 Z" />
<path fill="#ff4f38" d=" M 873.54 61.74 C 882.79 59.75 892.40 60.89 901.34 63.74 C 918.18 69.32 931.86 83.49 936.80 100.54 C 939.14 107.78 939.01 115.51 938.61 123.03 C 936.20 149.24 912.35 171.31 886.06 171.88 C 870.19 172.83 854.14 166.28 843.31 154.67 C 830.73 141.86 825.26 122.60 829.08 105.06 C 833.37 83.42 851.72 65.34 873.54 61.74 Z" />
<path fill="#fefefe" d=" M 468.49 87.70 C 517.59 84.00 567.33 89.06 614.69 102.56 C 687.77 123.31 754.49 165.29 805.56 221.44 C 832.57 250.92 855.26 284.34 872.66 320.34 C 905.82 388.62 918.93 466.26 911.39 541.71 C 906.16 593.14 891.64 643.75 867.66 689.61 C 824.22 773.88 750.98 842.37 663.89 879.90 C 579.51 916.36 482.88 923.27 394.05 899.81 C 319.62 880.55 251.29 839.25 198.76 783.23 C 171.94 754.78 149.11 722.57 131.37 687.72 C 85.80 599.18 74.74 493.90 99.27 397.53 C 117.37 324.97 156.41 258.03 209.62 205.61 C 259.38 156.45 321.69 119.89 389.23 101.46 C 415.13 94.36 441.71 89.78 468.49 87.70 Z" />
<path fill="#2c2c2c" d=" M 463.39 342.41 C 527.30 340.05 591.48 343.66 654.65 353.77 C 693.71 360.16 732.45 369.40 769.44 383.64 C 790.24 391.71 810.60 401.28 829.01 413.98 C 843.22 423.77 856.41 435.42 866.37 449.61 C 876.50 463.96 882.90 481.26 882.81 498.94 C 883.27 557.59 869.41 616.17 843.64 668.79 C 820.41 715.70 787.59 757.82 747.68 791.71 C 709.95 823.78 666.03 848.65 618.89 863.91 C 547.62 887.42 469.36 889.13 397.14 868.77 C 323.70 848.50 256.98 805.29 207.84 747.13 C 180.77 715.09 158.73 678.68 143.52 639.56 C 128.09 600.10 119.10 558.10 117.43 515.76 C 117.22 504.22 116.40 492.47 119.25 481.16 C 123.91 460.67 136.64 442.94 151.99 428.97 C 175.81 407.39 205.21 393.18 235.07 381.95 C 284.21 363.66 336.09 353.86 388.06 347.90 C 413.09 345.18 438.22 343.17 463.39 342.41 Z" />
<path fill="#fefefe" d=" M 273.51 527.51 C 286.58 514.43 304.40 505.98 322.94 505.01 C 342.19 504.07 361.76 510.16 376.96 522.04 C 392.69 534.12 403.27 552.46 406.51 571.97 C 408.15 580.43 407.64 589.08 407.61 597.64 C 398.22 597.70 388.87 598.66 379.47 598.57 C 378.51 584.70 372.77 571.01 362.66 561.34 C 353.50 551.91 340.12 546.74 326.99 547.76 C 314.34 548.61 301.78 553.71 292.87 562.87 C 285.93 569.61 281.26 578.52 279.14 587.93 C 278.26 591.46 278.44 595.18 277.33 598.67 C 268.01 598.53 258.73 597.74 249.43 597.64 C 249.34 589.77 248.99 581.85 250.24 574.05 C 252.81 556.59 261.13 540.07 273.51 527.51 Z" />
<path fill="#fefefe" d=" M 625.03 520.00 C 637.08 510.93 651.88 505.56 666.97 504.93 C 684.92 504.37 703.04 509.82 717.61 520.37 C 733.23 531.63 744.29 548.82 748.56 567.56 C 750.98 577.40 750.79 587.58 750.59 597.64 C 741.26 597.74 731.96 598.56 722.62 598.65 C 721.69 595.16 721.64 591.52 720.76 588.03 C 716.73 571.66 705.14 556.77 689.21 550.61 C 667.91 542.61 641.91 551.50 629.47 570.44 C 623.86 578.73 621.18 588.65 620.56 598.56 C 611.15 598.67 601.79 597.70 592.39 597.64 C 592.37 589.06 591.83 580.39 593.51 571.92 C 596.99 551.47 608.35 532.40 625.03 520.00 Z" />
</svg>
